<svg xmlns="http://www.w3.org/2000/svg" viewBox="0 0 1000 340" width="1000" height="340" font-family="Inter, system-ui, -apple-system, 'Segoe UI', Roboto, Helvetica, Arial, sans-serif"><style>
 .lb{font-size:17px;font-weight:700}
 .cp{font-size:15px;fill:#616D68}
 .nm{font-size:20px;font-weight:700;fill:#232A28}
</style><rect width="1000" height="340" fill="#FFFFFF"/><rect x="25" y="35" width="950" height="250" rx="16" fill="#F7F7F5" stroke="#B9BFBA" stroke-width="2"/><text x="52" y="72" class="lb" fill="#616D68">il "mondo": tutti i numeri naturali &#123;0, 1, 2, 3, &#8230;&#125;</text><rect x="60" y="92" width="560" height="170" rx="12" fill="#E4DAF6" stroke="#6B4CC4" stroke-width="2.6"/><text x="80" y="122" class="lb" fill="#6B4CC4">&#937; = &#123;1, 2, 3, 4, 5, 6&#125;</text><rect x="85" y="142" width="290" height="100" rx="10" fill="#CFE0FB" stroke="#2F6BD8" stroke-width="2.6"/><text x="102" y="168" font-size="15" font-weight="700" fill="#2F6BD8">E = &#123;2, 4, 6&#125;</text><circle cx="145" cy="205" r="24" fill="#fff" stroke="#4A5350" stroke-width="2.2"/><text x="145" y="205" dy=".35em" text-anchor="middle" class="nm">2</text><circle cx="230" cy="205" r="24" fill="#fff" stroke="#4A5350" stroke-width="2.2"/><text x="230" y="205" dy=".35em" text-anchor="middle" class="nm">4</text><circle cx="315" cy="205" r="24" fill="#fff" stroke="#4A5350" stroke-width="2.2"/><text x="315" y="205" dy=".35em" text-anchor="middle" class="nm">6</text><circle cx="430" cy="205" r="24" fill="#fff" stroke="#4A5350" stroke-width="2.2"/><text x="430" y="205" dy=".35em" text-anchor="middle" class="nm">1</text><circle cx="500" cy="205" r="24" fill="#fff" stroke="#4A5350" stroke-width="2.2"/><text x="500" y="205" dy=".35em" text-anchor="middle" class="nm">3</text><circle cx="570" cy="205" r="24" fill="#fff" stroke="#4A5350" stroke-width="2.2"/><text x="570" y="205" dy=".35em" text-anchor="middle" class="nm">5</text><circle cx="690" cy="150" r="24" fill="#fff" stroke="#4A5350" stroke-width="2.2"/><text x="690" y="150" dy=".35em" text-anchor="middle" class="nm">0</text><circle cx="780" cy="150" r="24" fill="#fff" stroke="#4A5350" stroke-width="2.2"/><text x="780" y="150" dy=".35em" text-anchor="middle" class="nm">7</text><circle cx="690" cy="230" r="24" fill="#fff" stroke="#4A5350" stroke-width="2.2"/><text x="690" y="230" dy=".35em" text-anchor="middle" class="nm">8</text><circle cx="780" cy="230" r="24" fill="#fff" stroke="#4A5350" stroke-width="2.2"/><text x="780" y="230" dy=".35em" text-anchor="middle" class="nm">9</text><text x="870" y="200" text-anchor="middle" font-size="26" font-weight="700" fill="#616D68">&#8230;</text><text x="500" y="318" text-anchor="middle" class="cp">il tipo dei valori &#8250; ci&#242; che il dado pu&#242; dare &#8250; l'evento che ci interessa</text></svg>